<svg xmlns="http://www.w3.org/2000/svg" width="540" height="540">
<rect width="100%" height="100%" fill="white"/>
<text x="20" y="30" font-size="18" font-family="Arial">Confusion Matrix (row-normalized)</text>
<text x="20" y="215.0" transform="rotate(-90 20 215.0)" font-size="14">True label</text>
<text x="209.0" y="404.0" font-size="14">Predicted label</text>
<text x="138" y="70" font-size="14">walk</text>
<text x="55" y="132" font-size="14">walk</text>
<text x="228" y="70" font-size="14">run</text>
<text x="55" y="222" font-size="14">run</text>
<text x="318" y="70" font-size="14">jump</text>
<text x="55" y="312" font-size="14">jump</text>
<rect x="110" y="80" width="90" height="90" fill="rgb(25,68,115)" stroke="#888"/>
<text x="132" y="132" font-size="18" font-family="Arial">100.0%</text>
<rect x="200" y="80" width="90" height="90" fill="rgb(245,248,255)" stroke="#888"/>
<text x="222" y="132" font-size="18" font-family="Arial">0.0%</text>
<rect x="290" y="80" width="90" height="90" fill="rgb(245,248,255)" stroke="#888"/>
<text x="312" y="132" font-size="18" font-family="Arial">0.0%</text>
<rect x="110" y="170" width="90" height="90" fill="rgb(236,240,249)" stroke="#888"/>
<text x="132" y="222" font-size="18" font-family="Arial">4.0%</text>
<rect x="200" y="170" width="90" height="90" fill="rgb(33,75,120)" stroke="#888"/>
<text x="222" y="222" font-size="18" font-family="Arial">96.0%</text>
<rect x="290" y="170" width="90" height="90" fill="rgb(245,248,255)" stroke="#888"/>
<text x="312" y="222" font-size="18" font-family="Arial">0.0%</text>
<rect x="110" y="260" width="90" height="90" fill="rgb(245,248,255)" stroke="#888"/>
<text x="132" y="312" font-size="18" font-family="Arial">0.0%</text>
<rect x="200" y="260" width="90" height="90" fill="rgb(245,248,255)" stroke="#888"/>
<text x="222" y="312" font-size="18" font-family="Arial">0.0%</text>
<rect x="290" y="260" width="90" height="90" fill="rgb(25,68,115)" stroke="#888"/>
<text x="312" y="312" font-size="18" font-family="Arial">100.0%</text>
</svg>